<svg preserveAspectRatio="none" width="100%" height="100%" overflow="visible" style="display: block;" viewBox="0 0 88.75 107.583" fill="none" xmlns="http://www.w3.org/2000/svg">
<g id="Icon">
<path d="M86.75 44.375C86.75 77.3333 44.375 105.583 44.375 105.583C44.375 105.583 2 77.3333 2 44.375C2 33.1365 6.4645 22.3582 14.4113 14.4113C22.3582 6.4645 33.1365 2 44.375 2C55.6136 2 66.3918 6.4645 74.3386 14.4113C82.2855 22.3582 86.75 33.1365 86.75 44.375Z" stroke="var(--stroke-0, #F9FAFB)" stroke-width="4" stroke-linecap="round" stroke-linejoin="round"/>
<path d="M44.375 58.5C52.176 58.5 58.5 52.176 58.5 44.375C58.5 36.574 52.176 30.25 44.375 30.25C36.574 30.25 30.25 36.574 30.25 44.375C30.25 52.176 36.574 58.5 44.375 58.5Z" stroke="var(--stroke-0, #F9FAFB)" stroke-width="4" stroke-linecap="round" stroke-linejoin="round"/>
</g>
</svg>
