<svg width="968" height="977" viewBox="0 0 968 977" fill="none" xmlns="http://www.w3.org/2000/svg">
<path d="M484 154.2C381.876 154.2 300.08 235.996 300.08 338.12C300.08 456.7 484 686.6 484 686.6C484 686.6 667.92 456.7 667.92 338.12C667.92 235.996 586.124 154.2 484 154.2Z" fill="url(#paint0_linear_2273_1139)"/>
<path d="M484 410.72C524.095 410.72 556.6 378.215 556.6 338.12C556.6 298.025 524.095 265.52 484 265.52C443.905 265.52 411.4 298.025 411.4 338.12C411.4 378.215 443.905 410.72 484 410.72Z" fill="white"/>
<path d="M290.4 647.88C322.477 647.88 348.48 621.877 348.48 589.8C348.48 557.723 322.477 531.72 290.4 531.72C258.323 531.72 232.32 557.723 232.32 589.8C232.32 621.877 258.323 647.88 290.4 647.88Z" fill="url(#paint1_linear_2273_1139)"/>
<path d="M677.6 647.88C709.677 647.88 735.68 621.877 735.68 589.8C735.68 557.723 709.677 531.72 677.6 531.72C645.523 531.72 619.52 557.723 619.52 589.8C619.52 621.877 645.523 647.88 677.6 647.88Z" fill="url(#paint2_linear_2273_1139)"/>
<path d="M484 841.48C516.077 841.48 542.08 815.477 542.08 783.4C542.08 751.323 516.077 725.32 484 725.32C451.923 725.32 425.92 751.323 425.92 783.4C425.92 815.477 451.923 841.48 484 841.48Z" fill="url(#paint3_linear_2273_1139)"/>
<path d="M484 493L290.4 589.8" stroke="url(#paint4_linear_2273_1139)" stroke-width="0.72" stroke-linecap="round"/>
<path d="M484 493L677.6 589.8" stroke="url(#paint5_linear_2273_1139)" stroke-width="0.72" stroke-linecap="round"/>
<path d="M484 493V783.4" stroke="url(#paint6_linear_2273_1139)" stroke-width="0.72" stroke-linecap="round"/>
<path opacity="0.5" d="M290.4 589.8H677.6" stroke="url(#paint7_linear_2273_1139)" stroke-width="0.48" stroke-linecap="round"/>
<path opacity="0.5" d="M290.4 589.8L484 783.4" stroke="url(#paint8_linear_2273_1139)" stroke-width="0.48" stroke-linecap="round"/>
<path opacity="0.5" d="M677.6 589.8L484 783.4" stroke="url(#paint9_linear_2273_1139)" stroke-width="0.48" stroke-linecap="round"/>
<defs>
<linearGradient id="paint0_linear_2273_1139" x1="300.08" y1="154.2" x2="798.051" y2="498.253" gradientUnits="userSpaceOnUse">
<stop stop-color="#10B981"/>
<stop offset="1" stop-color="#059669"/>
</linearGradient>
<linearGradient id="paint1_linear_2273_1139" x1="232.32" y1="531.72" x2="348.48" y2="647.88" gradientUnits="userSpaceOnUse">
<stop stop-color="#34D399"/>
<stop offset="1" stop-color="#10B981"/>
</linearGradient>
<linearGradient id="paint2_linear_2273_1139" x1="619.52" y1="531.72" x2="735.68" y2="647.88" gradientUnits="userSpaceOnUse">
<stop stop-color="#34D399"/>
<stop offset="1" stop-color="#10B981"/>
</linearGradient>
<linearGradient id="paint3_linear_2273_1139" x1="425.92" y1="725.32" x2="542.08" y2="841.48" gradientUnits="userSpaceOnUse">
<stop stop-color="#34D399"/>
<stop offset="1" stop-color="#10B981"/>
</linearGradient>
<linearGradient id="paint4_linear_2273_1139" x1="290.4" y1="493" x2="367.84" y2="647.88" gradientUnits="userSpaceOnUse">
<stop stop-color="#10B981"/>
<stop offset="1" stop-color="#059669"/>
</linearGradient>
<linearGradient id="paint5_linear_2273_1139" x1="484" y1="493" x2="561.44" y2="647.88" gradientUnits="userSpaceOnUse">
<stop stop-color="#10B981"/>
<stop offset="1" stop-color="#059669"/>
</linearGradient>
<linearGradient id="paint6_linear_2273_1139" x1="nan" y1="nan" x2="nan" y2="nan" gradientUnits="userSpaceOnUse">
<stop stop-color="#10B981"/>
<stop offset="1" stop-color="#059669"/>
</linearGradient>
<linearGradient id="paint7_linear_2273_1139" x1="nan" y1="nan" x2="nan" y2="nan" gradientUnits="userSpaceOnUse">
<stop stop-color="#34D399"/>
<stop offset="1" stop-color="#10B981"/>
</linearGradient>
<linearGradient id="paint8_linear_2273_1139" x1="290.4" y1="589.8" x2="484" y2="783.4" gradientUnits="userSpaceOnUse">
<stop stop-color="#34D399"/>
<stop offset="1" stop-color="#10B981"/>
</linearGradient>
<linearGradient id="paint9_linear_2273_1139" x1="484" y1="589.8" x2="677.6" y2="783.4" gradientUnits="userSpaceOnUse">
<stop stop-color="#34D399"/>
<stop offset="1" stop-color="#10B981"/>
</linearGradient>
</defs>
</svg>
